<?xml version="1.0" encoding="UTF-8" standalone="no"?>
<svg
   xmlns:dc="http://purl.org/dc/elements/1.1/"
   xmlns:cc="http://creativecommons.org/ns#"
   xmlns:rdf="http://www.w3.org/1999/02/22-rdf-syntax-ns#"
   xmlns:svg="http://www.w3.org/2000/svg"
   xmlns="http://www.w3.org/2000/svg"
   xmlns:sodipodi="http://sodipodi.sourceforge.net/DTD/sodipodi-0.dtd"
   xmlns:inkscape="http://www.inkscape.org/namespaces/inkscape"
   id="svg8"
   version="1.1"
   viewBox="0 0 66.145832 19.84375"
   height="75"
   width="250"
   sodipodi:docname="manadu_logo.svg"
   inkscape:version="0.92.4 (5da689c313, 2019-01-14)">
  <sodipodi:namedview
     pagecolor="#ffffff"
     bordercolor="#666666"
     borderopacity="1"
     objecttolerance="10"
     gridtolerance="10"
     guidetolerance="10"
     inkscape:pageopacity="0"
     inkscape:pageshadow="2"
     inkscape:window-width="1920"
     inkscape:window-height="1017"
     id="namedview9"
     showgrid="false"
     inkscape:zoom="6.4940687"
     inkscape:cx="57.843225"
     inkscape:cy="30.356538"
     inkscape:window-x="-8"
     inkscape:window-y="-8"
     inkscape:window-maximized="1"
     inkscape:current-layer="text817" />
  <defs
     id="defs2" />
  <metadata
     id="metadata5">
    <rdf:RDF>
      <cc:Work
         rdf:about="">
        <dc:format>image/svg+xml</dc:format>
        <dc:type
           rdf:resource="http://purl.org/dc/dcmitype/StillImage" />
        <dc:title />
      </cc:Work>
    </rdf:RDF>
  </metadata>
  <g
     transform="translate(0,-277.15625)"
     id="layer1">
    <path
       style="opacity:1;fill:#ffffff;fill-opacity:1;stroke:#000000;stroke-width:0.13192615;stroke-miterlimit:4;stroke-dasharray:none;stroke-opacity:1"
       d="M 0.06596307,277.22223 H 66.079871 v 19.71182 H 0.06596307 Z"
       id="rect821" />
    <g
       aria-label="manadu"
       style="font-style:normal;font-variant:normal;font-weight:bold;font-stretch:normal;font-size:17.37160492px;line-height:1.25;font-family:Cambria;-inkscape-font-specification:'Cambria, Bold';font-variant-ligatures:normal;font-variant-caps:normal;font-variant-numeric:normal;font-feature-settings:normal;text-align:start;letter-spacing:0px;word-spacing:0px;writing-mode:lr-tb;text-anchor:start;fill:#000000;fill-opacity:1;stroke:none;stroke-width:0.43429017"
       id="text817">
      <path
         d="m 4.4061349,284.75832 0.1017867,0.0254 q 0.7718829,-0.72099 1.3910856,-1.01786 0.6192027,-0.29688 1.2638521,-0.29688 0.627685,0 1.0433142,0.16116 0.4156292,0.16116 0.704025,0.475 0.2883958,0.30536 0.4665226,0.80582 0.8567049,-0.79733 1.4843899,-1.11966 0.636167,-0.32232 1.323228,-0.32232 0.678578,0 1.119654,0.17812 0.449558,0.17813 0.737954,0.55135 0.288396,0.37322 0.415629,0.93304 0.135716,0.55983 0.135716,1.3402 v 3.09601 q 0,0.37322 0.0085,0.70402 0.01696,0.32233 0.06786,0.51742 0.05089,0.19509 0.135716,0.32233 0.0933,0.11875 0.254466,0.20357 0.161163,0.0848 0.390183,0.1442 v 0.55982 h -4.088434 v -0.55982 q 0.3817,-0.0933 0.525898,-0.27143 0.144198,-0.17813 0.195091,-0.49197 0.05938,-0.31385 0.05938,-1.11966 v -2.27324 q 0,-0.7634 -0.05089,-1.2384 -0.05089,-0.48349 -0.195091,-0.75492 -0.144198,-0.27143 -0.347771,-0.39018 -0.195092,-0.11875 -0.517416,-0.11875 -0.220538,0 -0.407147,0.0679 -0.186609,0.0679 -0.381701,0.21206 -0.186609,0.13572 -0.3223243,0.27991 -0.1357156,0.1442 -0.2205379,0.32233 -0.07634,0.17813 -0.110269,0.39866 -0.025447,0.22054 -0.025447,0.72099 v 2.76521 q 0,0.57679 0.016965,0.88215 0.025447,0.30536 0.093305,0.49197 0.067858,0.18661 0.2120557,0.31384 0.1526802,0.11875 0.4665222,0.20358 v 0.55982 H 6.3146364 v -0.55982 q 0.3901825,-0.0933 0.5343804,-0.27143 0.1526802,-0.17813 0.2035735,-0.48349 0.050893,-0.31384 0.050893,-1.12814 v -2.27324 q 0,-0.55982 -0.025447,-0.94152 -0.016964,-0.39019 -0.067858,-0.62769 -0.050893,-0.2375 -0.1441979,-0.41563 -0.084822,-0.17812 -0.2035735,-0.28839 -0.110269,-0.11027 -0.2714313,-0.16965 -0.1526801,-0.0594 -0.3901826,-0.0594 -0.3138424,0 -0.6616138,0.19509 -0.3392892,0.19509 -0.5767916,0.54286 -0.2290202,0.34777 -0.2290202,0.74644 v 3.28262 q 0,0.79733 0.042411,1.11965 0.050893,0.31385 0.2035735,0.50046 0.1526801,0.17812 0.5343804,0.27143 v 0.55982 H 1.2507457 v -0.55982 q 0.407147,-0.11027 0.5598271,-0.2884 0.1611624,-0.17813 0.2120558,-0.48349 0.059376,-0.30536 0.059376,-1.11117 v -3.48619 q 0,-0.62769 -0.025447,-0.92457 -0.016964,-0.30536 -0.1017868,-0.48348 -0.07634,-0.18661 -0.2459846,-0.29688 -0.1611624,-0.11875 -0.5683094,-0.20358 v -0.57679 l 2.3241308,-0.0679 h 1.0687608 z"
         style="font-style:normal;font-variant:normal;font-weight:bold;font-stretch:normal;font-size:17.37160492px;font-family:Cambria;-inkscape-font-specification:'Cambria, Bold';font-variant-ligatures:normal;font-variant-caps:normal;font-variant-numeric:normal;font-feature-settings:normal;text-align:start;writing-mode:lr-tb;text-anchor:start;stroke-width:0.43429017"
         id="path4523" />
      <path
         d="m 21.735328,290.90793 -0.127233,-0.0424 q -0.695543,0.67858 -1.357157,0.98394 -0.653131,0.30536 -1.391085,0.30536 -0.729472,0 -1.272335,-0.26295 -0.53438,-0.27143 -0.814294,-0.74644 -0.271431,-0.475 -0.271431,-1.0942 0,-1.24689 1.221441,-1.9594 1.229923,-0.72099 3.723699,-0.9076 v -0.80581 q 0,-0.78885 -0.178127,-1.21296 -0.178127,-0.43259 -0.458041,-0.60224 -0.279913,-0.17812 -0.670096,-0.17812 -0.390182,0 -0.678578,0.13571 -0.279914,0.13572 -0.508934,0.51742 -0.22902,0.37322 -0.339289,1.04331 h -1.603141 v -1.54376 q 0.780365,-0.34777 1.297781,-0.53438 0.517416,-0.18661 1.017867,-0.30536 0.508934,-0.12724 0.907599,-0.17813 0.398665,-0.0509 0.797329,-0.0509 1.02635,0 1.63707,0.27143 0.619203,0.27143 0.924563,0.88215 0.305361,0.61072 0.305361,1.68796 v 3.30807 q 0,0.55983 0.02545,0.86519 0.02545,0.30536 0.07634,0.45804 0.05938,0.1442 0.144198,0.2375 0.08482,0.0848 0.203574,0.1442 0.127233,0.0509 0.466522,0.13572 v 0.55982 h -3.155389 z m -0.279913,-2.89244 q -1.314746,0.0339 -1.950913,0.49197 -0.627685,0.45804 -0.627685,1.34019 0,0.5259 0.288396,0.80582 0.288396,0.27143 0.797329,0.27143 0.390183,0 0.737954,-0.20358 0.347772,-0.21205 0.551345,-0.55982 0.203574,-0.34778 0.203574,-0.73796 z"
         style="font-style:normal;font-variant:normal;font-weight:bold;font-stretch:normal;font-size:17.37160492px;font-family:Cambria;-inkscape-font-specification:'Cambria, Bold';font-variant-ligatures:normal;font-variant-caps:normal;font-variant-numeric:normal;font-feature-settings:normal;text-align:start;writing-mode:lr-tb;text-anchor:start;stroke-width:0.43429017"
         id="path4525" />
      <path
         d="m 35.239037,292.0191 h -4.113881 v -0.55982 q 0.390182,-0.0933 0.542863,-0.27143 0.15268,-0.18661 0.203573,-0.49197 0.05938,-0.31385 0.05938,-1.11966 v -2.26475 q 0,-0.60224 -0.02545,-0.98394 -0.02545,-0.39018 -0.08482,-0.63617 -0.05089,-0.24598 -0.15268,-0.40715 -0.09331,-0.16964 -0.212056,-0.27143 -0.118751,-0.11027 -0.271431,-0.16116 -0.152681,-0.0509 -0.390183,-0.0509 -0.322325,0 -0.670096,0.20357 -0.347771,0.19509 -0.585274,0.55135 -0.237502,0.34777 -0.237502,0.74643 v 3.26566 q 0,0.80581 0.05089,1.11965 0.05089,0.31385 0.203574,0.50046 0.161162,0.17812 0.559827,0.27143 v 0.55982 h -4.096917 v -0.55982 q 0.407147,-0.11027 0.559827,-0.2884 0.161163,-0.17813 0.212056,-0.48349 0.05938,-0.30536 0.05938,-1.11117 v -3.48619 q 0,-0.62769 -0.02545,-0.92457 -0.01696,-0.30536 -0.101787,-0.48348 -0.07634,-0.18661 -0.245985,-0.29688 -0.161162,-0.11875 -0.568309,-0.20358 v -0.57679 l 2.324131,-0.0679 h 1.068761 l -0.127234,1.22144 0.101787,0.0254 q 0.525898,-0.46652 0.924563,-0.72947 0.398665,-0.27143 0.831258,-0.42411 0.441076,-0.16116 0.924563,-0.16116 0.695543,0 1.153584,0.20357 0.45804,0.19509 0.737953,0.57679 0.288396,0.3817 0.407147,0.93305 0.127234,0.55134 0.127234,1.28081 v 3.1045 q 0,0.37322 0.0085,0.70402 0.01696,0.32233 0.06786,0.51742 0.05089,0.19509 0.135716,0.32233 0.0933,0.11875 0.254466,0.20357 0.161163,0.0848 0.390183,0.1442 z"
         style="font-style:normal;font-variant:normal;font-weight:bold;font-stretch:normal;font-size:17.37160492px;font-family:Cambria;-inkscape-font-specification:'Cambria, Bold';font-variant-ligatures:normal;font-variant-caps:normal;font-variant-numeric:normal;font-feature-settings:normal;text-align:start;writing-mode:lr-tb;text-anchor:start;stroke-width:0.43429017"
         id="path4527" />
      <path
         d="m 41.515887,290.90793 -0.127234,-0.0424 q -0.695542,0.67858 -1.357156,0.98394 -0.653132,0.30536 -1.391086,0.30536 -0.729471,0 -1.272334,-0.26295 -0.53438,-0.27143 -0.814294,-0.74644 -0.271431,-0.475 -0.271431,-1.0942 0,-1.24689 1.221441,-1.9594 1.229923,-0.72099 3.723698,-0.9076 v -0.80581 q 0,-0.78885 -0.178127,-1.21296 -0.178127,-0.43259 -0.45804,-0.60224 -0.279914,-0.17812 -0.670096,-0.17812 -0.390183,0 -0.678578,0.13571 -0.279914,0.13572 -0.508934,0.51742 -0.22902,0.37322 -0.339289,1.04331 h -1.603142 v -1.54376 q 0.780365,-0.34777 1.297781,-0.53438 0.517416,-0.18661 1.017868,-0.30536 0.508934,-0.12724 0.907598,-0.17813 0.398665,-0.0509 0.79733,-0.0509 1.02635,0 1.63707,0.27143 0.619203,0.27143 0.924563,0.88215 0.30536,0.61072 0.30536,1.68796 v 3.30807 q 0,0.55983 0.02545,0.86519 0.02545,0.30536 0.07634,0.45804 0.05938,0.1442 0.144198,0.2375 0.08482,0.0848 0.203573,0.1442 0.127234,0.0509 0.466523,0.13572 v 0.55982 h -3.155389 z m -0.279914,-2.89244 q -1.314745,0.0339 -1.950912,0.49197 -0.627685,0.45804 -0.627685,1.34019 0,0.5259 0.288396,0.80582 0.288395,0.27143 0.797329,0.27143 0.390183,0 0.737954,-0.20358 0.347771,-0.21205 0.551345,-0.55982 0.203573,-0.34778 0.203573,-0.73796 z"
         style="font-style:normal;font-variant:normal;font-weight:bold;font-stretch:normal;font-size:17.37160492px;font-family:Cambria;-inkscape-font-specification:'Cambria, Bold';font-variant-ligatures:normal;font-variant-caps:normal;font-variant-numeric:normal;font-feature-settings:normal;text-align:start;writing-mode:lr-tb;text-anchor:start;stroke-width:0.43429017"
         id="path4529" />
      <path
         d="m 53.993247,289.54229 q 0,0.64465 0.01696,0.94153 0.02545,0.29688 0.101787,0.47501 0.07634,0.17812 0.245985,0.29687 0.169644,0.11027 0.568309,0.19509 v 0.56831 l -2.307166,0.0763 h -1.02635 l 0.07634,-1.22144 -0.127233,-0.008 q -0.610721,0.6192 -1.289299,0.95849 -0.670096,0.33081 -1.289299,0.33081 -1.543766,0 -2.315648,-1.06028 -0.763401,-1.06028 -0.763401,-3.18932 0,-1.44198 0.466523,-2.42591 0.466522,-0.99243 1.382603,-1.50136 0.924563,-0.50893 2.222344,-0.50893 0.373218,0 0.729472,0.0509 0.364735,0.0424 0.856705,0.17813 v -0.77189 q 0,-0.90759 -0.02545,-1.28081 -0.02545,-0.3817 -0.110269,-0.57679 -0.07634,-0.20358 -0.237502,-0.31385 -0.161163,-0.11027 -0.585274,-0.19509 v -0.56831 l 2.349577,-0.11875 h 1.060279 z m -2.451364,-3.15539 q 0,-1.03483 -0.347772,-1.53528 -0.347771,-0.50045 -1.068761,-0.50045 -0.525898,0 -0.907598,0.3817 -0.373218,0.37322 -0.568309,1.08572 -0.186609,0.71251 -0.186609,1.68797 0,1.671 0.364735,2.49377 0.364736,0.82278 1.136619,0.82278 0.364736,0 0.72099,-0.17813 0.364735,-0.18661 0.61072,-0.55982 0.245985,-0.3817 0.245985,-0.87367 z"
         style="font-style:normal;font-variant:normal;font-weight:bold;font-stretch:normal;font-size:17.37160492px;font-family:Cambria;-inkscape-font-specification:'Cambria, Bold';font-variant-ligatures:normal;font-variant-caps:normal;font-variant-numeric:normal;font-feature-settings:normal;text-align:start;writing-mode:lr-tb;text-anchor:start;stroke-width:0.43429017"
         id="path4531" />
      <path
         d="m 55.995053,283.60473 h 3.299587 v 4.70764 q 0,0.81429 0.05089,1.27233 0.05089,0.45804 0.195091,0.72948 0.144198,0.26295 0.347772,0.39018 0.212055,0.11875 0.53438,0.11875 0.313843,0 0.661614,-0.19509 0.347771,-0.19509 0.585274,-0.54286 0.245984,-0.35626 0.245984,-0.75492 v -3.27414 q 0,-0.61921 -0.02545,-0.91608 -0.02545,-0.30536 -0.101787,-0.47501 -0.06786,-0.16964 -0.220538,-0.27991 -0.15268,-0.11875 -0.500452,-0.22054 v -0.55983 h 3.30807 v 5.93756 q 0,0.64465 0.01696,0.94153 0.02545,0.29688 0.101787,0.47501 0.07634,0.17812 0.245985,0.29687 0.169644,0.11027 0.568309,0.19509 v 0.56831 l -2.307166,0.0763 h -1.02635 l 0.07634,-1.22144 -0.101787,-0.0254 q -0.788847,0.72947 -1.40805,1.01786 -0.619202,0.2884 -1.246887,0.2884 -0.899117,0 -1.441979,-0.33081 -0.534381,-0.33929 -0.771883,-0.98394 -0.237503,-0.65313 -0.237503,-1.67948 v -3.10449 q 0,-0.47501 -0.01696,-0.72947 -0.0085,-0.25447 -0.03393,-0.39019 -0.02545,-0.1442 -0.07634,-0.25446 -0.04241,-0.11876 -0.127233,-0.21206 -0.07634,-0.0933 -0.220538,-0.16964 -0.135716,-0.0763 -0.373218,-0.13572 z"
         style="font-style:normal;font-variant:normal;font-weight:bold;font-stretch:normal;font-size:17.37160492px;font-family:Cambria;-inkscape-font-specification:'Cambria, Bold';font-variant-ligatures:normal;font-variant-caps:normal;font-variant-numeric:normal;font-feature-settings:normal;text-align:start;writing-mode:lr-tb;text-anchor:start;stroke-width:0.43429017"
         id="path4533" />
    </g>
  </g>
</svg>
